v -0.000003 1.500008 -0.300000
v -0.000003 1.500008 -0.300000
v 1.000003 1.500008 -0.300000
v 1.000003 1.500008 0.000000
v 1.000003 1.500008 0.000000
v -0.000003 1.500008 0.000000
v -0.000003 -0.000008 0.000000
v -0.000003 -0.000008 0.000000
v -0.000003 1.500008 0.000000
v 1.000003 1.500008 0.000000
v 1.000003 1.500008 0.000000
v 1.000003 -0.000008 0.000000
v 1.000003 -0.000008 -0.300000
v 1.000003 -0.000008 -0.300000
v 1.000003 -0.000008 0.000000
v 1.000003 1.500008 0.000000
v 1.000003 1.500008 0.000000
v 1.000003 1.500008 -0.300000
v -0.000003 -0.000008 -0.300000
v -0.000003 -0.000008 -0.300000
v -0.000003 -0.000008 0.000000
v 1.000003 -0.000008 0.000000
v 1.000003 -0.000008 0.000000
v 1.000003 -0.000008 -0.300000
v -0.000003 -0.000008 -0.300000
v -0.000003 -0.000008 -0.300000
v 1.000003 -0.000008 -0.300000
v 1.000003 1.500008 -0.300000
v 1.000003 1.500008 -0.300000
v -0.000003 1.500008 -0.300000
v -0.000003 -0.000008 -0.300000
v -0.000003 -0.000008 -0.300000
v -0.000003 -0.000008 0.000000
v -0.000003 1.500008 0.000000
v -0.000003 1.500008 0.000000
v -0.000003 1.500008 -0.300000
# 36 vertices

vt -0.000118 0.985505
vt 0.455665 0.846346
vt 0.455665 0.985505
vt -0.000118 0.846346
vt -0.000053 0.000518
vt 0.999767 1.000032
vt -0.000053 1.000032
vt 0.999767 0.000518
vt 0.996652 0.007804
vt 0.981127 1.002281
vt 0.981127 0.007804
vt 0.996652 1.002281
# 12 texture coordinates

vn 0.000000 1.000000 0.000000
vn 0.000000 0.000000 1.000000
vn 1.000000 0.000000 0.000000
vn 0.000000 -1.000000 0.000000
vn 0.000000 0.000000 -1.000000
vn -1.000000 0.000000 0.000000
# 6 normals

f 1/1/1 4/2/1 3/3/1
f 6/4/1 5/2/1 2/1/1
f 7/5/2 10/6/2 9/7/2
f 12/8/2 11/6/2 8/5/2
f 13/9/3 16/10/3 15/11/3
f 18/12/3 17/10/3 14/9/3
f 19/1/4 22/2/4 21/4/4
f 24/3/4 23/2/4 20/1/4
f 25/5/5 28/6/5 27/8/5
f 30/7/5 29/6/5 26/5/5
f 31/9/6 34/10/6 36/12/6
f 33/11/6 35/10/6 32/9/6
# 12 triangles in group

# 12 triangles total

